<svg xmlns="http://www.w3.org/2000/svg" viewBox="0 0 800 500">
  <defs>
    <linearGradient id="flowGrad" x1="0%" y1="0%" x2="100%" y2="0%">
      <stop offset="0%" style="stop-color:#1e3a5f"/>
      <stop offset="100%" style="stop-color:#2d5a87"/>
    </linearGradient>
  </defs>
  
  <!-- Window frame -->
  <rect x="0" y="0" width="800" height="500" rx="8" fill="#1a1a2e"/>
  
  <!-- Title bar -->
  <rect x="0" y="0" width="800" height="35" rx="8" fill="url(#flowGrad)"/>
  <circle cx="20" cy="17" r="6" fill="#ff5f57"/>
  <circle cx="40" cy="17" r="6" fill="#ffbd2e"/>
  <circle cx="60" cy="17" r="6" fill="#28ca42"/>
  <text x="400" y="22" text-anchor="middle" fill="white" font-family="Arial" font-size="13">Windsurf - Flows</text>
  
  <!-- Header -->
  <rect x="0" y="35" width="800" height="50" fill="#16213e"/>
  <text x="30" y="67" fill="#64ffda" font-family="Arial" font-size="16" font-weight="bold">⚡ Flows</text>
  <text x="120" y="67" fill="#8892b0" font-family="Arial" font-size="14">Automated Workflows</text>
  <rect x="650" y="50" width="120" height="30" rx="6" fill="#64ffda"/>
  <text x="710" y="70" text-anchor="middle" fill="#1a1a2e" font-family="Arial" font-size="12" font-weight="bold">+ New Flow</text>
  
  <!-- Flow list -->
  <rect x="20" y="100" width="760" height="80" rx="8" fill="#2d3748"/>
  <circle cx="50" cy="140" r="15" fill="#22c55e"/>
  <text x="45" y="145" fill="white" font-family="Arial" font-size="14">▶</text>
  <text x="80" y="130" fill="#ccd6f6" font-family="Arial" font-size="14" font-weight="bold">Daily Treasury Briefing</text>
  <text x="80" y="150" fill="#8892b0" font-family="Arial" font-size="12">Runs daily at 7:00 AM • Last run: Today 7:00 AM ✓</text>
  <text x="80" y="170" fill="#64ffda" font-family="Arial" font-size="11">3 steps • Fetch data → Generate report → Save files</text>
  <rect x="680" y="125" width="80" height="30" rx="4" fill="#1e3a5f"/>
  <text x="720" y="145" text-anchor="middle" fill="#ccd6f6" font-family="Arial" font-size="11">Edit</text>
  
  <rect x="20" y="190" width="760" height="80" rx="8" fill="#2d3748"/>
  <circle cx="50" cy="230" r="15" fill="#f59e0b"/>
  <text x="42" y="235" fill="white" font-family="Arial" font-size="14">⏸</text>
  <text x="80" y="220" fill="#ccd6f6" font-family="Arial" font-size="14" font-weight="bold">Weekly Peer Comparison</text>
  <text x="80" y="240" fill="#8892b0" font-family="Arial" font-size="12">Runs weekly on Monday • Last run: Jan 29, 2026</text>
  <text x="80" y="260" fill="#64ffda" font-family="Arial" font-size="11">5 steps • Fetch peers → Calculate metrics → Build chart → Export CSV → Notify</text>
  <rect x="680" y="215" width="80" height="30" rx="4" fill="#1e3a5f"/>
  <text x="720" y="235" text-anchor="middle" fill="#ccd6f6" font-family="Arial" font-size="11">Edit</text>
  
  <rect x="20" y="280" width="760" height="80" rx="8" fill="#2d3748"/>
  <circle cx="50" cy="320" r="15" fill="#8892b0"/>
  <text x="45" y="325" fill="white" font-family="Arial" font-size="14">○</text>
  <text x="80" y="310" fill="#ccd6f6" font-family="Arial" font-size="14" font-weight="bold">Monthly Debt Analysis</text>
  <text x="80" y="330" fill="#8892b0" font-family="Arial" font-size="12">Runs monthly on 1st • Next run: Mar 1, 2026</text>
  <text x="80" y="350" fill="#64ffda" font-family="Arial" font-size="11">4 steps • Pull SEC filings → Parse debt data → Compare YoY → Generate report</text>
  <rect x="680" y="305" width="80" height="30" rx="4" fill="#1e3a5f"/>
  <text x="720" y="325" text-anchor="middle" fill="#ccd6f6" font-family="Arial" font-size="11">Edit</text>
  
  <!-- Footer stats -->
  <rect x="20" y="380" width="240" height="100" rx="8" fill="#16213e"/>
  <text x="40" y="410" fill="#8892b0" font-family="Arial" font-size="12">TOTAL FLOWS</text>
  <text x="40" y="450" fill="#64ffda" font-family="Arial" font-size="36" font-weight="bold">3</text>
  
  <rect x="280" y="380" width="240" height="100" rx="8" fill="#16213e"/>
  <text x="300" y="410" fill="#8892b0" font-family="Arial" font-size="12">RUNS THIS WEEK</text>
  <text x="300" y="450" fill="#22c55e" font-family="Arial" font-size="36" font-weight="bold">12</text>
  
  <rect x="540" y="380" width="240" height="100" rx="8" fill="#16213e"/>
  <text x="560" y="410" fill="#8892b0" font-family="Arial" font-size="12">TIME SAVED</text>
  <text x="560" y="450" fill="#f59e0b" font-family="Arial" font-size="36" font-weight="bold">4.5h</text>
</svg>
