<svg xmlns="http://www.w3.org/2000/svg" viewBox="0 0 800 500">
  <!-- Background -->
  <rect x="0" y="0" width="800" height="500" rx="8" fill="#f8fafc"/>
  
  <!-- Header -->
  <rect x="0" y="0" width="800" height="60" fill="#7c3aed"/>
  <text x="30" y="38" fill="white" font-family="Arial" font-size="20" font-weight="bold">🏦 Peer Group Analyzer</text>
  <rect x="620" y="18" width="80" height="28" rx="4" fill="#a78bfa"/>
  <text x="660" y="37" text-anchor="middle" fill="white" font-family="Arial" font-size="11">Refresh</text>
  <rect x="710" y="18" width="70" height="28" rx="4" fill="white"/>
  <text x="745" y="37" text-anchor="middle" fill="#7c3aed" font-family="Arial" font-size="11">Export</text>
  
  <!-- Filters -->
  <rect x="20" y="75" width="760" height="50" rx="8" fill="white" stroke="#e2e8f0" stroke-width="1"/>
  <text x="40" y="105" fill="#64748b" font-family="Arial" font-size="12">Peer Group:</text>
  <rect x="120" y="85" width="150" height="30" rx="4" fill="#f1f5f9" stroke="#cbd5e1" stroke-width="1"/>
  <text x="135" y="105" fill="#1e293b" font-family="Arial" font-size="12">Banks ▼</text>
  
  <text x="300" y="105" fill="#64748b" font-family="Arial" font-size="12">Sort By:</text>
  <rect x="360" y="85" width="150" height="30" rx="4" fill="#f1f5f9" stroke="#cbd5e1" stroke-width="1"/>
  <text x="375" y="105" fill="#1e293b" font-family="Arial" font-size="12">ROE ▼</text>
  
  <!-- Table -->
  <rect x="20" y="140" width="760" height="200" rx="8" fill="white" stroke="#e2e8f0" stroke-width="1"/>
  
  <!-- Table header -->
  <rect x="20" y="140" width="760" height="35" rx="8" fill="#7c3aed"/>
  <text x="50" y="163" fill="white" font-family="Arial" font-size="12" font-weight="bold">Company</text>
  <text x="180" y="163" fill="white" font-family="Arial" font-size="12" font-weight="bold">Market Cap</text>
  <text x="310" y="163" fill="white" font-family="Arial" font-size="12" font-weight="bold">ROE</text>
  <text x="420" y="163" fill="white" font-family="Arial" font-size="12" font-weight="bold">P/E</text>
  <text x="520" y="163" fill="white" font-family="Arial" font-size="12" font-weight="bold">Div Yield</text>
  <text x="640" y="163" fill="white" font-family="Arial" font-size="12" font-weight="bold">YTD Return</text>
  
  <!-- Row 1 - JPM -->
  <rect x="20" y="175" width="760" height="32" fill="#faf5ff"/>
  <text x="50" y="196" fill="#1e293b" font-family="Arial" font-size="12" font-weight="bold">JPM</text>
  <text x="180" y="196" fill="#1e293b" font-family="Arial" font-size="12">$580B</text>
  <text x="310" y="196" fill="#16a34a" font-family="Arial" font-size="12" font-weight="bold">15.2%</text>
  <text x="420" y="196" fill="#1e293b" font-family="Arial" font-size="12">12.1</text>
  <text x="520" y="196" fill="#1e293b" font-family="Arial" font-size="12">2.4%</text>
  <text x="640" y="196" fill="#16a34a" font-family="Arial" font-size="12">+8.5%</text>
  <text x="740" y="196" fill="#f59e0b" font-family="Arial" font-size="12">🥇</text>
  
  <!-- Row 2 - GS -->
  <rect x="20" y="207" width="760" height="32" fill="white"/>
  <text x="50" y="228" fill="#1e293b" font-family="Arial" font-size="12" font-weight="bold">GS</text>
  <text x="180" y="228" fill="#1e293b" font-family="Arial" font-size="12">$145B</text>
  <text x="310" y="228" fill="#1e293b" font-family="Arial" font-size="12">12.8%</text>
  <text x="420" y="228" fill="#1e293b" font-family="Arial" font-size="12">14.3</text>
  <text x="520" y="228" fill="#1e293b" font-family="Arial" font-size="12">2.1%</text>
  <text x="640" y="228" fill="#16a34a" font-family="Arial" font-size="12">+6.2%</text>
  
  <!-- Row 3 - BAC -->
  <rect x="20" y="239" width="760" height="32" fill="#faf5ff"/>
  <text x="50" y="260" fill="#1e293b" font-family="Arial" font-size="12" font-weight="bold">BAC</text>
  <text x="180" y="260" fill="#1e293b" font-family="Arial" font-size="12">$310B</text>
  <text x="310" y="260" fill="#1e293b" font-family="Arial" font-size="12">10.5%</text>
  <text x="420" y="260" fill="#1e293b" font-family="Arial" font-size="12">11.8</text>
  <text x="520" y="260" fill="#1e293b" font-family="Arial" font-size="12">2.6%</text>
  <text x="640" y="260" fill="#16a34a" font-family="Arial" font-size="12">+4.1%</text>
  
  <!-- Row 4 - C -->
  <rect x="20" y="271" width="760" height="32" fill="white"/>
  <text x="50" y="292" fill="#1e293b" font-family="Arial" font-size="12" font-weight="bold">C</text>
  <text x="180" y="292" fill="#1e293b" font-family="Arial" font-size="12">$120B</text>
  <text x="310" y="292" fill="#1e293b" font-family="Arial" font-size="12">8.2%</text>
  <text x="420" y="292" fill="#1e293b" font-family="Arial" font-size="12">9.5</text>
  <text x="520" y="292" fill="#1e293b" font-family="Arial" font-size="12">3.1%</text>
  <text x="640" y="292" fill="#ef4444" font-family="Arial" font-size="12">-2.3%</text>
  
  <!-- Row 5 - WFC -->
  <rect x="20" y="303" width="760" height="32" fill="#faf5ff"/>
  <text x="50" y="324" fill="#1e293b" font-family="Arial" font-size="12" font-weight="bold">WFC</text>
  <text x="180" y="324" fill="#1e293b" font-family="Arial" font-size="12">$195B</text>
  <text x="310" y="324" fill="#1e293b" font-family="Arial" font-size="12">11.1%</text>
  <text x="420" y="324" fill="#1e293b" font-family="Arial" font-size="12">12.0</text>
  <text x="520" y="324" fill="#1e293b" font-family="Arial" font-size="12">2.8%</text>
  <text x="640" y="324" fill="#16a34a" font-family="Arial" font-size="12">+5.8%</text>
  
  <!-- Bar chart -->
  <rect x="20" y="355" width="760" height="130" rx="8" fill="white" stroke="#e2e8f0" stroke-width="1"/>
  <text x="40" y="380" fill="#1e293b" font-family="Arial" font-size="14" font-weight="bold">ROE Comparison</text>
  
  <!-- Bars -->
  <text x="80" y="410" fill="#1e293b" font-family="Arial" font-size="11">JPM</text>
  <rect x="120" y="398" width="456" height="18" rx="3" fill="#7c3aed"/>
  <text x="585" y="412" fill="#1e293b" font-family="Arial" font-size="11">15.2%</text>
  
  <text x="80" y="435" fill="#1e293b" font-family="Arial" font-size="11">GS</text>
  <rect x="120" y="423" width="384" height="18" rx="3" fill="#a78bfa"/>
  <text x="513" y="437" fill="#1e293b" font-family="Arial" font-size="11">12.8%</text>
  
  <text x="80" y="460" fill="#1e293b" font-family="Arial" font-size="11">WFC</text>
  <rect x="120" y="448" width="333" height="18" rx="3" fill="#c4b5fd"/>
  <text x="462" y="462" fill="#1e293b" font-family="Arial" font-size="11">11.1%</text>
  
  <text x="80" y="485" fill="#1e293b" font-family="Arial" font-size="11">BAC</text>
  <rect x="120" y="473" width="315" height="18" rx="3" fill="#ddd6fe"/>
  <text x="444" y="487" fill="#1e293b" font-family="Arial" font-size="11">10.5%</text>
</svg>
